<svg xmlns="http://www.w3.org/2000/svg" viewBox="0 0 64 64" role="img" aria-label="Atalaia">
  <defs>
    <linearGradient id="at-shield" x1="14" y1="3" x2="50" y2="62" gradientUnits="userSpaceOnUse">
      <stop offset="0" stop-color="#4A9BFF"/>
      <stop offset="1" stop-color="#1250D6"/>
    </linearGradient>
    <linearGradient id="at-sheen" x1="0" y1="0" x2="0" y2="1">
      <stop offset="0" stop-color="#fff" stop-opacity=".30"/>
      <stop offset=".55" stop-color="#fff" stop-opacity="0"/>
    </linearGradient>
  </defs>
  <path d="M32 3 55.5 10.8v19.4c0 15.6-9.9 26.2-23.5 31.8C18.4 56.4 8.5 45.8 8.5 30.2V10.8L32 3Z" fill="url(#at-shield)"/>
  <path d="M32 3 55.5 10.8v19.4c0 15.6-9.9 26.2-23.5 31.8C18.4 56.4 8.5 45.8 8.5 30.2V10.8L32 3Z" fill="url(#at-sheen)"/>
  <path d="M32 6.2 52.6 13v17.2c0 13.9-8.7 23.4-20.6 28.7C20.1 53.6 11.4 44.1 11.4 30.2V13L32 6.2Z" fill="none" stroke="#fff" stroke-opacity=".22" stroke-width="1.2"/>
  <!-- agente: ombros, colarinho, gravata, cabeça e óculos escuros -->
  <path d="M17.6 48.2c1.2-6.9 6.6-10.6 14.4-10.6s13.2 3.7 14.4 10.6c-3.9 4.2-8.6 6.9-14.4 9-5.8-2.1-10.5-4.8-14.4-9Z" fill="#F3F8FF"/>
  <path d="M26.2 38.3 32 46.2l5.8-7.9c-1.8-.5-3.7-.7-5.8-.7s-4 .2-5.8.7Z" fill="#1B5FE0"/>
  <path d="M30.6 45.2h2.8l1 8-2.4 2.3-2.4-2.3 1-8Z" fill="#0B1F4D"/>
  <circle cx="32" cy="24" r="8.4" fill="#F3F8FF"/>
  <path d="M23.4 21.4h17.2a1 1 0 0 1 1 1.2c-.5 2.6-2.2 4.2-4.6 4.2-1.7 0-2.9-.8-3.7-1.9h-1.8c-.8 1.1-2 1.9-3.7 1.9-2.4 0-4.1-1.6-4.6-4.2a1 1 0 0 1 1.2-1.2Z" fill="#0B1F4D"/>
  <path d="M25.2 22.9h4.1" stroke="#7FB2FF" stroke-width="1.1" stroke-linecap="round"/>
  <path d="M34.7 22.9h2.4" stroke="#7FB2FF" stroke-width="1.1" stroke-linecap="round" opacity=".7"/>
</svg>
